<svg version="1.1" xmlns="http://www.w3.org/2000/svg" viewBox="0 0 245.4756983124563 214.9391658827139">
  <!-- svg-source:excalidraw -->
  <defs>
    <style>
      @font-face {
        font-family: "Virgil";
        src: url("https://excalidraw.com/FG_Virgil.woff2");
      }
      @font-face {
        font-family: "Cascadia";
        src: url("https://excalidraw.com/Cascadia.woff2");
      }
    </style>
  </defs>
  <g><g transform="translate(36.33272633447348 206.50662102066894) rotate(14.809016348480524 27.701864700516126 -103.1347603022313)"><path d="M0.516013889014721 -1.0935633704066277 C9.81611997240173 -35.748051834670086, 46.76280223098333 -172.74970639629854, 56.075946949624246 -207.2162325192534 M-0.6722175485920161 0.9467119147907943 C8.49850045306558 -33.569869709923125, 45.98004209981981 -171.05399779069802, 55.444238714377185 -205.70445613011836" stroke="#7097d9" stroke-width="4" fill="none"></path></g></g><g><g transform="translate(51.99418189291475 211.26353110038258) rotate(9.904823495297967 27.554271397566424 -102.85897964744939)"><path d="M0.11206477135419846 -0.12142196148633966 C9.522007189650404 -34.293025705356825, 47.06213177273208 -169.74758504996413, 56.39678274815719 -203.91242762440103 M-1.288239953024313 -1.2307724366057666 C7.937725951230469 -35.22268547404439, 45.875257110289944 -171.804415794158, 55.25999825830388 -205.5965373334124" stroke="#7097d9" stroke-width="4" fill="none"></path></g></g><g><g transform="translate(12.841675163572631 198.22739553419683) rotate(365.20550076696225 11.624186888654037 1.4304965874748916)"><path d="M0.07119798213243489 -0.002204485237598419 C3.820190360810072 0.8098992546666676, 18.454822452196034 3.1395529132430826, 22.313652172182266 3.909958960276255 M-1.3505618065875025 -1.0489657853264363 C2.7950738629078717 -0.5385709824114776, 20.622203274767028 1.2692392377184158, 24.59893558389558 1.90552577380293" stroke="#7097d9" stroke-width="4" fill="none"></path></g></g><g><g transform="translate(28.16034402913067 224.63867400611923) rotate(9.904823495297967 38.18448830313838 -118.79385323399666)"><path d="M-1.1841592982411384 -30.04414863399757 C2.277989869569412 -30.015013851825884, 18.323815765202554 -29.685114006612444, 20.191709026722137 -30.94430193704596 C22.05960228824172 -32.203489867479476, 10.087360013338591 -37.66603039969865, 10.02320027087637 -37.59927621659866 C9.959040528414148 -37.53252203349867, 20.95549274950199 -32.06851326887105, 19.806750571948808 -30.54377683844603 C18.658008394395626 -29.019040408021002, 3.4722692531683004 -29.39364059943763, 3.13074720555728 -28.450857634048507 C2.7892251579462597 -27.508074668659383, 17.797028202153328 -25.370476219456354, 17.757618286282685 -24.887079046111285 C17.718208370412043 -24.403681872766217, 1.6898409246721602 -26.000739154581215, 2.894287710333428 -25.550474593978105 C4.098734495994695 -25.100210033374996, 24.32046783372173 -21.24521905044521, 24.984299000250292 -22.18549168249263 C25.648130166778856 -23.125764314540046, 7.269934303112049 -29.30261296291669, 6.877274709504809 -31.192110386262616 C6.484615115897568 -33.08160780960854, 21.020249049671886 -32.35397306631067, 22.62834143860685 -33.522476222568194 C24.236433827541813 -34.690979378825716, 15.083448307089128 -37.052143126752455, 16.525829043114598 -38.20312932380775 C17.968209779140068 -39.35411552086305, 32.267243355784586 -39.36897668015684, 31.282625854759672 -40.428393404899985 C30.298008353734755 -41.48781012964313, 12.411463660928305 -44.38300134638629, 10.618124036965094 -44.559629672266624 C8.824784413001883 -44.73625799814696, 21.374112706439472 -40.88458078193059, 20.5225881109804 -41.48816336018199 C19.67106351552133 -42.0917459384334, 4.9012091597743925 -47.200880726739896, 5.508976464210661 -48.18112514177506 C6.116743768646929 -49.16136955681023, 20.8080768713522 -47.139418265255685, 24.16919193759801 -47.36962985039299 C27.530307003843824 -47.599841435530294, 26.52277899081951 -48.71196283330093, 25.675666861685535 -49.562394652598876 C24.82855473255156 -50.41282647189682, 18.275057813025505 -52.425884078103394, 19.086519162794154 -52.472220766180655 C19.897980512562803 -52.518557454257916, 31.0176735576144 -48.962443922629916, 30.544434960297437 -49.840414781062435 C30.071196362980473 -50.718385639494954, 16.714868510876595 -56.681400870821285, 16.247087578892366 -57.74004591677577 C15.779306646908136 -58.798690962730255, 25.65184174596151 -55.891704473337036, 27.73774936839206 -56.192285056789345 C29.82365699082261 -56.492865640241654, 30.62616909461275 -57.83047102201055, 28.762533313475675 -59.54352941748963 C26.8988975323386 -61.25658781296871, 15.454925651851864 -65.04505403937297, 16.55593468156962 -66.47063542966383 C17.656943711287376 -67.89621681995469, 34.781065130202435 -67.72188395325584, 35.368587491782215 -68.0970177592348 C35.956109853361994 -68.47215156521376, 19.86023444750046 -68.34136070897965, 20.081068851048297 -68.72143826553763 C20.301903254596134 -69.1015158220956, 33.77048146828163 -69.95358768895198, 36.693593913069236 -70.37748309858267 C39.61670635785684 -70.80137850821336, 39.93056337598792 -70.08458532238753, 37.61974351977395 -71.26481072332177 C35.30892366355997 -72.44503612425602, 23.63544107657022 -76.5381983416074, 22.828674775785387 -77.45883550418817 C22.021908475000554 -78.37947266676895, 33.19141120833356 -75.64997827003293, 32.77914571506495 -76.78863369880642 C32.366880221796336 -77.92728912757991, 19.150172594790675 -83.15891320865998, 20.355081816173723 -84.29076807682908 C21.55999103755677 -85.42262294499818, 36.89117699163029 -83.15411264037085, 40.008601043363235 -83.57976290782098 C43.12602509509618 -84.0054131752711, 40.23197461674715 -85.64381838572513, 39.05962612657142 -86.84466968152982 C37.887277636395694 -88.04552097733452, 31.902727370784273 -90.07198115885615, 32.97451010230886 -90.78487068264917 C34.046292833833455 -91.4977602064422, 45.73604186982393 -90.18606711774152, 45.490322515718965 -91.12200682428795 C45.244603161614 -92.05794653083439, 32.68836732776729 -95.98075364364304, 31.500193977679064 -96.40050892192781 C30.312020627590837 -96.82026420021258, 39.59734687848384 -92.47719032004589, 38.361282415189606 -93.64053849399653 C37.12521795189537 -94.80388666794717, 24.631729738565248 -101.8124618485718, 24.083807197913668 -103.38059796563161 C23.535884657262088 -104.94873408269142, 34.239001381468164 -102.82550027828555, 35.073747171280125 -103.04935519635539 C35.90849296109209 -103.27321011442524, 27.507365508716234 -104.4363901476327, 29.092281936785437 -104.72372747405072 C30.67719836485464 -105.01106480046874, 42.09523385328845 -104.03720226051361, 44.583245739695336 -104.77337915486355 C47.07125762610222 -105.50955604921349, 45.04976221892798 -107.95962695233905, 44.02035325522675 -109.14078884015038 C42.99094429152552 -110.3219507279617, 38.7444893003491 -111.70348602454493, 38.40679195748794 -111.86035048173147 C38.06909461462678 -112.01721493891802, 42.128728761177996 -109.99594929252616, 41.99416919805977 -110.0819755832696 C41.85960963494155 -110.16800187401303, 35.99252000103277 -112.63040199024076, 37.599434578778606 -112.3765082261921 C39.20634915652444 -112.12261446214345, 52.98505159420144 -106.86207503313345, 51.635656664534785 -108.55861299897762 C50.286261734868134 -110.2551509648218, 31.66758478710082 -121.24904591741326, 29.503065000778697 -122.55573602125712 C27.338545214456573 -123.86242612510098, 36.513847074095615 -120.24498139075813, 38.64853794660204 -116.39875362204083 C40.783228819108466 -112.55252585332353, 42.59144119799366 -101.3284073605406, 42.311210235817256 -99.47836940895333 C42.03097927364085 -97.62833145736606, 37.15140973291373 -104.44097494936743, 36.96715217354363 -105.2985259125172 C36.782894614173536 -106.15607687566698, 40.88294947087237 -102.02271639051239, 41.20566487959669 -104.623675187852 C41.52838028832101 -107.22463398519162, 38.31138201053366 -118.81537118354072, 38.90344462588954 -120.90427869655488 C39.49550724124542 -122.99318620956905, 44.62433654684399 -116.22237215334133, 44.75804057173196 -117.15712026593698 C44.89174459661993 -118.09186837853264, 38.67495083147076 -124.91745402660753, 39.70566877521736 -126.51276737212878 C40.73638671896396 -128.10808071765004, 49.53153651001503 -125.9985295516353, 50.942348234211586 -126.7290003390645 C52.35315995840814 -127.4594711264937, 47.700772244104016 -130.3566270332833, 48.170539120396676 -130.89559209670398 C48.640305996689335 -131.43455716012465, 54.10006870936743 -129.63778496337937, 53.760949491967565 -129.96279071958847 C53.421830274567704 -130.28779647579756, 46.56758556936987 -133.60007051337297, 46.13582381599751 -132.8456266339586 C45.704062062625155 -132.09118275454423, 51.83695914638841 -126.7978577240014, 51.17037897173345 -125.43612744310228 C50.50379879707849 -124.07439716220316, 43.227624962596835 -125.18570710893665, 42.13634276806777 -124.67524494856383 C41.045060573538706 -124.164782788191, 44.295850964629686 -122.12139037474721, 44.62268580455907 -122.3733544808653 C44.94952064448845 -122.6253185869834, 43.75231341059499 -126.10182247036609, 44.09735180764407 -126.18702958527237 C44.44239020469315 -126.27223670017865, 46.88504496560891 -122.2968349453471, 46.69291618685355 -122.88459717030302 C46.50078740809819 -123.47235939525895, 42.24814612805318 -128.7867995848753, 42.94457913511188 -129.7136029350079 C43.64101214217058 -130.64040628514053, 49.75420835129775 -124.83162709054615, 50.87151422920576 -128.44541727109876 C51.98882010711377 -132.05920745165136, 49.218082027256514 -148.41204034260466, 49.64841440255992 -151.39634401832356 C50.07874677786333 -154.38064769404247, 53.219087379052056 -146.68426668586687, 53.453508481026226 -146.35123932541214 C53.6879295830004 -146.0182119649574, 51.3572019316563 -150.11354247792806, 51.054941014404946 -149.39817985559506 C50.75268009715359 -148.68281723326206, 52.26321932265494 -142.55956661164774, 51.639942977518096 -142.05906359141412 C51.01666663238125 -141.5585605711805, 47.22106555071314 -146.39125341088, 47.31528294358388 -146.39516173419327 C47.40950033645462 -146.39907005750652, 52.38690445494934 -142.46536581779768, 52.20524733474253 -142.08251353129367 C52.02359021453572 -141.69966124478967, 46.6147286447283 -144.20376092236944, 46.22534022234302 -144.0980480151693 C45.83595179995774 -143.99233510796915, 50.630002999631316 -141.79388048810557, 49.86891680043087 -141.4482360880928 C49.10783060123042 -141.10259168808005, 41.98476541769017 -142.02491212424482, 41.658823027140315 -142.02418161509283 C41.33288063659046 -142.02345110594084, 46.63154001954198 -140.76208593906878, 47.91326245713174 -141.44385303318083 C49.19498489472149 -142.12562012729288, 48.687034635763084 -145.3119762919126, 49.34915765267885 -146.11478417976508 C50.01128066959461 -146.91759206761756, 51.258942979325155 -145.61067506909146, 51.88600055862631 -146.26070036029574 C52.51305813792746 -146.91072565150003, 53.343086755359934 -148.93451308120078, 53.11150312848575 -150.01493592699074 C52.87991950161157 -151.0953587727807, 50.35007114445405 -152.84082251806703, 50.49649879738123 -152.7432374350355 C50.64292645030841 -152.64565235200396, 53.926397169500255 -149.36033771182738, 53.99006904604882 -149.42942542880152 C54.05374092259739 -149.49851314577566, 50.621775637322955 -153.27160346725606, 50.87853005667264 -153.15776373688036 C51.13528447602232 -153.04392400650465, 55.93279603222122 -147.94320791700275, 55.530595562146914 -148.74638704654723 C55.12839509207261 -149.5495661760917, 47.93765919817428 -157.83866214319778, 48.465327236226784 -157.97683851414718 C48.99299527427929 -158.11501488509657, 58.17084465247241 -149.45617895075802, 58.69660379046193 -149.57544527224368 C59.222362928451446 -149.69471159372935, 51.54979359198841 -158.21881396798457, 51.6198820641639 -158.69243644306113 C51.689970536339395 -159.16605891813768, 57.96080887798411 -152.7172712395427, 59.11713462351487 -152.417180122703 C60.27346036904564 -152.1170890058633, 59.3890241844695 -153.77260622365108, 58.557836537348486 -156.89188974202293 C57.72664889022747 -160.01117326039477, 53.68474097269994 -169.96412502527903, 54.13000874078879 -171.1328812329341 C54.575276508877636 -172.30163744058916, 59.7778824927109 -164.38647164882812, 61.229443145881575 -163.9044269879533 C62.68100379905225 -163.42238232707845, 63.29563002747858 -166.8631509685514, 62.83937265981285 -168.2406132676851 C62.383115292147124 -169.6180755668188, 58.99577442802889 -173.26561802017235, 58.49189893988723 -172.16920078275538 C57.98802345174557 -171.0727835453384, 59.10064348905232 -163.5026850782911, 59.81611973096289 -161.66210984318332 C60.53159597287346 -159.82153460807552, 62.244185353629604 -160.5906794717967, 62.78475639135067 -161.12574937210871 C63.325327429071734 -161.66081927242072, 64.06667663403103 -162.52736381141492, 63.05954595728928 -164.87252924505538 C62.052415280547535 -167.21769467869584, 56.916315310573474 -174.6221731051437, 56.74197233090022 -175.19674197395148 C56.56762935122696 -175.77131084275925, 61.682497395477675 -167.8875319763045, 62.01348807924976 -168.31994245790204 C62.34447876302185 -168.7523529394996, 58.663824626821096 -177.04002678876074, 58.727916433532734 -177.79120486353668 C58.79200824024437 -178.5423829383126, 62.12171531788574 -171.9873589656469, 62.398038919519564 -172.8270109065577 C62.67436252115339 -173.66666284746847, 60.0080971647286 -181.97244580589552, 60.38585804333568 -182.82911650900132 C60.76361892194276 -183.68578721210713, 64.23361663237185 -177.3907447694832, 64.66460419116201 -177.96703512519244 C65.09559174995218 -178.54332548090167, 62.59108216377397 -186.03593295647192, 62.9717833960767 -186.2868586432568 C63.352484628379436 -186.5377843300417, 67.0171412690707 -178.1284504681301, 66.94881158497842 -179.47258924590176 C66.88048190088612 -180.81672802367342, 60.81981568496884 -192.5871181931369, 62.56180529152294 -194.3516913098867 C64.30379489807704 -196.1162644266365, 76.06772723799436 -189.34022289425556, 77.40074922430303 -190.06002794640054 C78.73377121061169 -190.77983299854552, 71.30086587455565 -197.25213376924148, 70.55993720937491 -198.67052162275652 C69.81900854419416 -200.08890947627157, 73.59453288457341 -197.20465820689523, 72.9551772332185 -198.57035506749082 C72.3158215818636 -199.9360519280864, 66.0363235396376 -206.11742164142692, 66.72380330124547 -206.86470278633 C67.41128306285333 -207.6119839312331, 77.04346941422374 -201.64261695052437, 77.08005580286567 -203.0540419369094 C77.11664219150761 -204.46546692329446, 67.91011612160483 -214.0123100365708, 66.9433216330971 -215.33325270464027 C65.97652714458937 -216.65419537270975, 70.46213039001313 -211.58326894467876, 71.27928887181932 -210.97969794532622 M0.3950183408427983 -30.96033241328379 C3.7768059161817487 -30.725627827695376, 17.96662511112033 -28.925177209636193, 19.404499101564188 -29.834599236417993 C20.842373092008046 -30.744021263199794, 8.866486854065995 -36.41430164719175, 9.022262283505952 -36.41686457397459 C9.17803771294591 -36.419427500757436, 21.474105009920002 -31.296090630978167, 20.339151678203937 -29.84997679711505 C19.20419834648787 -28.403862963251935, 2.4354229807164973 -28.4600581204245, 2.2125422932095606 -27.740181570795894 C1.989661605702624 -27.02030502116729, 18.736872644954875 -25.67937774583482, 19.001867553162317 -25.53071749934341 C19.266862461369758 -25.382057252852, 2.8942611096588258 -27.383989663234217, 3.802511742454207 -26.848220091847434 C4.710762375249589 -26.31245052046065, 24.115164644758867 -21.375453476751773, 24.451371349934604 -22.31610007102272 C24.78757805511034 -23.25674666529367, 6.063942059123609 -30.50422252887693, 5.8197519735086365 -32.49209965747312 C5.575561887893664 -34.47997678606931, 21.114890582765412 -33.48252910867082, 22.98623083624477 -34.243362842599865 C24.857571089724125 -35.00419657652891, 15.87472754068076 -35.8922584251298, 17.047793494384777 -37.05710206104742 C18.220859448088795 -38.221945696965044, 31.131675382724055 -39.840604285164794, 30.02462655846887 -41.23242465810559 C28.917577734213687 -42.62424503104639, 11.565342321623934 -45.41617090775936, 10.405500548853674 -45.408024298692204 C9.245658776083413 -45.39987768962505, 23.84621566698318 -40.70257237664936, 23.06557592184731 -41.18354500370266 C22.284936176711437 -41.66451763075597, 5.4089404900666915 -46.931836187156044, 5.72166207803844 -48.29386006101203 C6.034383666010188 -49.65588393486802, 21.737047123227196 -49.25639000721701, 24.9419054496778 -49.35568824683858 C28.146763776128406 -49.45498648646016, 26.03982277616991 -48.42140018427628, 24.950812036742068 -48.88964949874148 C23.861801297314226 -49.357898813206674, 17.664688881927592 -52.13455710530774, 18.40784101311075 -52.16518413362977 C19.15099314429391 -52.1958111619518, 29.631977376453076 -48.38280476114933, 29.409724823841024 -49.073411668673664 C29.187472271228973 -49.764018576198, 16.96683234047033 -55.0053825517379, 17.07432569743845 -56.30882557877578 C17.18181905440657 -57.61226860581366, 28.012122219687374 -56.69295725185412, 30.054684965649745 -56.89406983090093 C32.09724771161211 -57.095182409947746, 31.523297296531425 -55.87503620557743, 29.32970217321267 -57.51550105305665 C27.136107049893916 -59.155965900535875, 15.62894969483261 -65.3704753158101, 16.893114225737214 -66.73685891577627 C18.15727875664182 -68.10324251574244, 36.66063023404811 -65.48475621887972, 36.914689358640295 -65.7138026528537 C37.168748483232484 -65.94284908682768, 18.363100517072507 -67.24331639672792, 18.417468973290344 -68.11113751962014 C18.47183742950818 -68.97895864251237, 33.81747817162509 -70.37572059650836, 37.240900095947325 -70.92072939020706 C40.66432202026956 -71.46573818390576, 41.20298272245645 -70.0303119403068, 38.95800051922375 -71.38119028181237 C36.71301831599106 -72.73206862331793, 24.815867494951032 -78.3845566814405, 23.771006876551166 -79.02599943924041 C22.7261462581513 -79.66744219704032, 33.487989124972486 -74.12736419245185, 32.68883680882456 -75.22984682861183 C31.889684492676636 -76.3323294647718, 17.754311511717134 -84.5392542515828, 18.976092979663616 -85.64089525620028 C20.197874447610097 -86.74253626081776, 36.738694064682285 -81.90747934708675, 40.01952561650345 -81.83969285631667 C43.30035716832462 -81.7719063655466, 39.56767473369631 -84.17347313301937, 38.661082290590606 -85.23417631157983 C37.754489847484905 -86.29487949014029, 33.208420729460784 -87.31786448513515, 34.57997095786924 -88.20391192767941 C35.9515211862777 -89.08995937022368, 47.70199905624158 -89.11672155115771, 46.89038366104136 -90.5504609668454 C46.07876826584114 -91.9842003825331, 31.018211894248477 -96.00368503022, 29.7102785866679 -96.80634842180557 C28.402345279087324 -97.60901181339113, 39.69638542178455 -94.12766665180328, 39.0427838155579 -95.36644131635879 C38.389182209331246 -96.6052159809143, 26.84871947800004 -103.37074959165034, 25.78866894930801 -104.23899640913864 C24.728618420615984 -105.10724322662693, 32.26135523703522 -100.65253820107209, 32.68248064340573 -100.57592222128856 C33.103606049776246 -100.49930624150504, 26.50979467922231 -103.09790064888519, 28.315421387531092 -103.77930053043751 C30.121048095839875 -104.46070041198983, 40.9118278944739 -103.33624019748606, 43.516240893258434 -104.6643215106025 C46.12065389204297 -105.99240282371895, 45.14950662159177 -110.5775659689066, 43.94189938023827 -111.74778840913615 C42.73429213888477 -112.9180108493657, 36.730220568473754 -111.91944237932879, 36.270597445137454 -111.68565615197981 C35.810974321801154 -111.45186992463084, 40.91952699005466 -109.90464318701862, 41.184160640220455 -110.34507104504235 C41.448794290386246 -110.78549890306607, 35.74953895538618 -114.58845639693024, 37.85839934613222 -114.3282233001222 C39.967259736878255 -114.06799020331417, 55.49078628631491 -107.46275202362945, 53.83732298469668 -108.7836724641941 C52.183859683078445 -110.10459290475875, 30.598576554941282 -120.91542049057136, 27.937619536422826 -122.2537459435101 C25.27666251790437 -123.59207139644883, 35.91682615943857 -120.38155280080501, 37.87158087358595 -116.8136251818265 C39.826335587733325 -113.24569756284798, 39.81290682454822 -102.57114794519904, 39.66614782130708 -100.84618022963902 C39.519388818065934 -99.12121251407899, 36.6406476844476 -105.76581645798132, 36.99102685413911 -106.46381888846632 C37.341406023830615 -107.16182131895133, 41.34848716933684 -102.86247381217169, 41.768422839456136 -105.03419481254905 C42.18835850957543 -107.2059158129264, 39.01088109418862 -117.4351040752065, 39.51064087485488 -119.49414489073044 C40.01040065552114 -121.55318570625438, 44.597922948382916 -116.27318346797072, 44.76698152345371 -117.38843970569273 C44.9360400985245 -118.50369594341474, 39.56198235614572 -124.75872644127878, 40.52499232527961 -126.1856823170625 C41.488002294413505 -127.61263819284622, 49.48080791376171 -125.56859929567275, 50.54504133825705 -125.95017496039507 C51.60927476275239 -126.3317506251174, 46.16415781166667 -128.07189521638244, 46.91039287225165 -128.47513630539638 C47.65662793283663 -128.8783773944103, 55.34960233242391 -128.06026640373162, 55.02245170176693 -128.3696214944787 C54.69530107110995 -128.6789765852258, 45.875978324656636 -130.86338006579103, 44.94748908830975 -130.3312668498789 C44.01899985196287 -129.79915363396674, 49.9115543738255 -125.85163410804398, 49.45151628368564 -125.17694219900584 C48.99147819354578 -124.50225028996769, 43.15779084341289 -126.83847423703355, 42.18726054747058 -126.28311539565 C41.21673025152827 -125.72775655426645, 43.623810599486944 -122.06185618032433, 43.62833450803176 -121.84478915070451 C43.63285841657658 -121.6277221210847, 41.577412397714255 -124.8786152359704, 42.21440399873949 -124.98071321793115 C42.85139559976473 -125.0828111998919, 47.491456478894634 -121.59667713077174, 47.45028411418317 -122.45737704246902 C47.409111749471705 -123.3180769541663, 40.99601349521834 -129.36111915528443, 41.96736981047073 -130.14491268811483 C42.938726125723115 -130.92870622094523, 52.31422513198897 -123.89160634460006, 53.27842200569747 -127.1601382394514 C54.242618879405974 -130.42867013430273, 47.65950959117899 -146.53210224058475, 47.752551052721735 -149.75610405722284 C47.84559251426448 -152.98010587386094, 53.09120998409459 -146.60399867780052, 53.83667077495397 -146.50414913928 C54.582131565813356 -146.4042996007595, 52.59421930201628 -149.8880578317139, 52.22531579787804 -149.15700682609966 C51.8564122937398 -148.42595582048543, 52.11257672696333 -142.85830324118038, 51.62324975012454 -142.1178431055946 C51.133922773285754 -141.37738297000882, 49.12522138015954 -144.62521020417523, 49.289353936845295 -144.71424601258494 C49.45348649353105 -144.80328182099464, 53.31853530140689 -143.06277646511728, 52.6080450902391 -142.6520579560529 C51.897554879071315 -142.2413394469885, 45.69537187887878 -142.59420524434643, 45.02641266983856 -142.24993495819854 C44.35745346079833 -141.90566467205065, 49.20213684909008 -140.6708332638689, 48.59428983599774 -140.58643623916564 C47.9864428229054 -140.50203921446237, 41.20732654513118 -141.56672941954469, 41.37933059128453 -141.7435528099789 C41.551334637437876 -141.9203762004131, 48.458878600822764 -140.64142893440132, 49.626314112917846 -141.64737658177083 C50.79374962501293 -142.65332422914034, 47.67130693804978 -146.99367261064518, 48.38394366385503 -147.77923869419593 C49.096580389660275 -148.56480477774667, 53.165941439217505 -146.15801760558747, 53.90213446774933 -146.36077308307534 C54.63832749628115 -146.5635285605632, 53.67150755701625 -147.7839963289447, 52.801101835045955 -148.9957715591231 C51.93069611307566 -150.20754678930152, 48.594219297716265 -153.85531639778947, 48.67970013592758 -153.63142446414577 C48.7651809741389 -153.40753253050207, 52.92232908801888 -147.72069889963, 53.31398686431386 -147.65241995726092 C53.705644640608845 -147.58414101489183, 50.75687921668209 -152.65672422273667, 51.029646793697495 -153.22175080993117 C51.3024143707129 -153.78677739712566, 55.45880822806356 -150.0885024113802, 54.95059232640632 -151.04257948042786 C54.442376424749085 -151.99665654947552, 47.19712110432613 -158.95299028743702, 47.980351383754076 -158.94621322421713 C48.76358166318202 -158.93943616099725, 58.95699407906865 -151.25720772369516, 59.64997400297402 -151.00191710110857 C60.34295392687939 -150.746626478522, 52.17989514359753 -157.32681624445175, 52.13823092718631 -157.41446948869762 C52.096566710775086 -157.5021227329435, 57.94292153173317 -151.7673621184931, 59.39998870450669 -151.52783656658386 C60.85705587728021 -151.2883110146746, 61.87220636816918 -152.3854168562841, 60.88063396382742 -155.97731617724205 C59.88906155948566 -159.56921549819998, 53.232693142969495 -172.03491394316512, 53.45055427845613 -173.07923249233144 C53.66841541394277 -174.12355104149776, 60.9960272131032 -162.9226735920338, 62.187800776747224 -162.2432274722399 C63.37957434039125 -161.56378135244603, 61.28162954660506 -167.1603632137643, 60.60119566032028 -169.00255577356816 C59.9207617740355 -170.84474833337202, 58.09348575768461 -174.46202420882614, 58.105197459038514 -173.2963828310631 C58.11690916039242 -172.1307414533001, 59.577510982340904 -164.02191654469058, 60.6714658684437 -162.00870750699005 C61.76542075454649 -159.99549846928952, 64.1420707830883 -160.83311407124282, 64.66892677565527 -161.2171286048599 C65.19578276822223 -161.601143138477, 65.09612676975564 -161.99986224832966, 63.83260182384552 -164.31279470869256 C62.5690768779354 -166.62572716905547, 57.384266998343435 -174.86625276119517, 57.08777710019455 -175.09472336703726 C56.791287202045666 -175.32319397287935, 61.743420134881 -165.3559782385319, 62.05366243495224 -165.68361834374517 C62.363904735023475 -166.01125844895844, 58.85430064937938 -175.74194187769928, 58.949230900621984 -177.06056399831692 C59.044161151864586 -178.37918611893457, 62.3184571651792 -172.76164826345303, 62.623243942407825 -173.59535106745096 C62.92803071963645 -174.4290538714489, 60.649402766521014 -181.35974168447166, 60.77795156399377 -182.06278082230463 C60.90650036146652 -182.7658199601376, 62.7742618847356 -177.1437679186029, 63.39453672724436 -177.81358589444886 C64.0148115697531 -178.48340387029484, 63.62065100721505 -185.47829121190483, 64.4996006190463 -186.08168867738053 C65.37855023087756 -186.68508614285622, 68.91179326665369 -180.14187513976702, 68.66823439823189 -181.4339706873031 C68.42467552981009 -182.72606623483915, 61.94749110044189 -192.53713789311462, 63.03824740851548 -193.83426196259697 C64.12900371658907 -195.13138603207932, 74.05678961391428 -188.270274865082, 75.21277224667345 -189.21671510419722 C76.36875487943263 -190.16315534331244, 70.13218211041274 -198.2661127119207, 69.97414320507058 -199.5129033972882 C69.81610429972841 -200.7596940826557, 74.74699081491664 -195.0679026090524, 74.26453881462041 -196.69745921640214 C73.78208681432417 -198.32701582375188, 66.90578701219951 -208.42613760543315, 67.07943120329317 -209.2902430413867 C67.25307539438683 -210.15434847734025, 74.96517086804546 -201.17173952162207, 75.30640396118235 -201.88209183212334 C75.64763705431925 -202.5924441426246, 69.98448666516111 -211.8118020309983, 69.12682976211453 -213.55235690439434 C68.26917285906794 -215.29291177779038, 69.71406737933731 -212.6028572777956, 70.16046254290285 -212.3254210724995" stroke="#7097d9" stroke-width="4" fill="none"></path></g></g><g><g transform="translate(160.82648312379206 11.528269064793562) rotate(345.5109022366416 12.210456066035022 99.09408898854612)"><path d="M0.46042727977037434 -1.1147782042622565 C4.248541917728353 32.278709042749, 19.068438070649744 165.9331002209643, 23.021761143666318 199.30295618135446 M-0.7569871276896447 0.9143592931609601 C3.3648262362667354 34.09904920901787, 21.140548338201363 165.07782520501223, 25.17789925975967 197.80595812356995" stroke="#7097d9" stroke-width="4" fill="none"></path></g></g><g><g transform="translate(171.13426424239947 4.910228758100118) rotate(345.5109022366416 19.10141793923208 99.26953615971298)"><path d="M-0.22303562611341476 0.24729187935590735 C6.541877439032111 33.37392334853273, 33.12940431242244 166.31588409119155, 40.00210393762656 199.20755614874727 M-1.799268059162423 -0.6684838293213398 C4.8088209658682235 32.09490725450192, 31.706812154971004 164.36985175292807, 38.75287037822858 197.57441044882714" stroke="#7097d9" stroke-width="4" fill="none"></path></g></g><g><g transform="translate(180.83440454955962 231.86188627047142) rotate(345.5109022366416 4.52640235382421 -125.94241639797468)"><path d="M-1.6287884296311939 -27.597583948153233 C0.48046175630271515 -27.685983406084752, 10.554603615734779 -29.048441590284696, 9.510450774580049 -29.206705509203648 C8.466297933425318 -29.3649694281226, -11.06390186797103 -27.82418747739274, -7.89370547655958 -28.547167461666945 C-4.72350908514813 -29.27014744594115, 24.711210743015556 -32.86789994294293, 28.53162912304875 -33.544585414848875 C32.35204750308194 -34.22127088675482, 16.159104128267316 -32.69229560716724, 15.028804803639574 -32.60728029310264 C13.898505479011831 -32.52226497903804, 23.649542022055993 -32.73450487957085, 21.749833175282298 -33.03449353046129 C19.850124328508603 -33.33448218135173, 4.663566647023421 -34.45762618031989, 3.6305517229973976 -34.4072121984453 C2.5975367989713742 -34.35679821657071, 15.627142659462631 -33.7277648076871, 15.55174363112616 -32.73200963921373 C15.476344602789688 -31.73625447074036, 1.8864133414244626 -28.593622455050856, 3.178157552978569 -28.432681187605077 C4.4699017645326755 -28.2717399201593, 22.871933446338296 -31.01403339768357, 23.302208900450797 -31.76636203453905 C23.732484354563297 -32.51869067139453, 5.729701394646205 -31.568024375595694, 5.759810277653575 -32.94665300873797 C5.789919160660944 -34.325281641880245, 24.27531238368832 -39.1333107493083, 23.482862198495017 -40.0381338333927 C22.690412013301714 -40.9429569174771, 1.1996748734984866 -37.43538143890877, 1.0051091664937601 -38.37559151324435 C0.8105434594890338 -39.315801587579934, 20.288769715359436 -44.98835455975401, 22.31546795646666 -45.67939427940618 C24.34216619757388 -46.370433999058356, 16.15282983415144 -43.566306253951254, 13.165298613137095 -42.521829831157405 C10.177767392122751 -41.477353408363555, 2.5158598992163617 -38.062159257532414, 4.390280630380599 -39.4125357426431 C6.264701361544836 -40.76291222775379, 24.748254997816375 -48.899680201828424, 24.41182300012252 -50.62408874182151 C24.075391002428667 -52.348497281814595, 2.7241640726343337 -48.04216977698439, 2.3716886442174783 -49.758986982601606 C2.019213215800623 -51.475804188218824, 20.56072520234302 -59.34764535735147, 22.29697042962139 -60.924991975524826 C24.03321565689976 -62.502338593698184, 16.503494009279 -59.77455032936234, 12.789160007887705 -59.22306669164177 C9.07482600649641 -58.671583053921196, -1.036150599028185 -57.02435036540222, 0.010966421273620575 -57.61609014920138 C1.0580834415754259 -58.207829933000546, 17.792747524945753 -62.15372633985133, 19.071862129698538 -62.773505394436754 C20.350976734451322 -63.393284449022175, 7.650138819667872 -61.09909338723143, 7.685654049790317 -61.33476447671391 C7.721169279912762 -61.57043556619639, 20.868756440119014 -63.83339406105974, 19.284953510433205 -64.18753193133162 C17.701150580747395 -64.5416698016035, -1.133393659022734 -61.85662204840526, -1.8171635283245422 -63.45959169834518 C-2.5009333976263504 -65.0625613482851, 14.536007400125243 -72.28390028444826, 15.182334294622356 -73.80534983097114 C15.828661189119469 -75.32679937749401, 1.7039561684667401 -71.13283903791421, 2.0607978386581314 -72.58828897748243 C2.4176395088495224 -74.04373891705066, 17.567617251962734 -80.99950705528884, 17.323384315770703 -82.5380494683805 C17.079151379578672 -84.07659188147217, 1.1135911540100287 -81.4524116627424, 0.5954002215059457 -81.81954345603242 C0.07720928900186264 -82.18667524932243, 14.18064388424341 -84.19086999488917, 14.214238720746204 -84.74084022812056 C14.247833557248997 -85.29081046135195, 0.7926416115742994 -84.43856956563411, 0.7969692405227077 -85.11936485542078 C0.801296869471116 -85.80016014520746, 15.395998192404711 -88.51706509397336, 14.240204494436654 -88.82561196684055 C13.084410796468596 -89.13415883970775, -5.508828652222403 -86.22944013695877, -6.137792947285639 -86.97064609262398 C-6.766757242348876 -87.71185204828919, 9.32989471584644 -92.24030381853679, 10.466418724057231 -93.27284770083178 C11.602942732268023 -94.30539158312676, 4.03199701383993 -93.8426260992611, 0.6813511019791131 -93.1659093863939 C-2.6692948098817033 -92.48919267352672, -13.52220933055086 -86.6444374312393, -9.637456747107665 -89.21254742362866 C-5.75270416366447 -91.78065741601803, 21.11608207766389 -105.62599358485403, 23.98986660263828 -108.57456934073011 C26.86365112761267 -111.52314509660619, 8.383759085995099 -106.10976722446729, 7.605250402738663 -106.90400195888516 C6.826741719482227 -107.69823669330303, 19.75484888178098 -112.35978369282626, 19.318814503099663 -113.33997774723731 C18.882780124418346 -114.32017180164837, 9.635851997119037 -113.66747927245837, 4.989044130650756 -112.78516628535151 C0.34223626418247566 -111.90285329824465, -8.064582261189617 -108.33023987715669, -8.562032695710016 -108.04609982459618 C-9.059483130230415 -107.76195977203568, 1.4770523619119071 -110.73929986673852, 2.004341523528362 -111.08032596998848 C2.531630685144817 -111.42135207323844, -6.598010763107647 -109.23808855302087, -5.398297726011285 -110.0922564440959 C-4.198584688914924 -110.94642433517092, 9.193602942524818 -115.24166677129404, 9.20261974610653 -116.20533331643863 C9.211636549688242 -117.16899986158322, -1.1809914303152542 -116.19296049741185, -5.344196904521011 -115.8742557149634 C-9.507402378726768 -115.55555093251495, -18.773273043982215 -112.42170202283582, -15.77661309912801 -114.29310462174791 C-12.779953154273805 -116.16450722066001, 8.81251033397446 -124.87537599745222, 12.635762764604221 -127.10267130843599 C16.45901519523398 -129.32996661941974, 11.141699471165571 -128.1343555563784, 7.162901484650555 -127.65687648765046 C3.184103498135538 -127.17939741892252, -8.561007104362217 -124.90289650922985, -11.237025154485877 -124.2377968960683 C-13.913043204609538 -123.57269728290676, -12.708520534887727 -122.1537657594379, -8.893206816091414 -123.66627880868123 C-5.077893097295101 -125.17879185792455, 9.937469306586085 -131.70080350764434, 11.654857158291994 -133.3128751915282 C13.372245009997904 -134.92494687541208, 1.515545708985823 -132.86731836172802, 1.4111202941440406 -133.33870891198447 C1.3066948793022581 -133.8100994622409, 13.672751683688597 -135.67929563506812, 11.0283046692413 -136.14121849306682 C8.383857654794001 -136.60314135106552, -14.798273161767675 -133.72857395484476, -14.45556179253975 -136.1102460599766 C-14.112850423311826 -138.49191816510842, 11.148570715032388 -148.32991494517648, 13.084572884608844 -150.43125112385775 C15.0205750541853 -152.532587302539, -1.6728264328481048 -148.406174922461, -2.839548775081009 -148.71826313206424 C-4.006271117313913 -149.03035134166748, 7.212145552834054 -151.97943526588136, 6.084238831211421 -152.30378038147722 C4.956332109588788 -152.62812549707309, -10.036177501073436 -149.42251189693832, -9.606989104816808 -150.66433382563935 C-9.17780070856018 -151.90615575434038, 6.481717045052706 -158.21862139445187, 8.659369208751187 -159.75471195368334 C10.837021372449668 -161.2908025129148, 7.328292200818179 -161.20513613961938, 3.4589238773740725 -159.88087718102815 C-0.4104444460700343 -158.55661822243692, -12.98704497483565 -153.3983088948081, -14.556840731913452 -151.8091582021359 C-16.126636488991256 -150.2200075094637, -7.416387229332658 -150.29017355865983, -5.959850665092745 -150.34597302499498 C-4.5033141008528315 -150.40177249133012, -4.330042612296673 -151.5494614336713, -5.81762134647397 -152.14395500014686 C-7.305200080651268 -152.73844856662242, -13.593372567009055 -153.28803236448113, -14.885323070156531 -153.91293442384833 C-16.177273573304007 -154.53783648321553, -17.608775305618366 -153.48495603534857, -13.569324365358824 -155.89336735634998 C-9.529873425099282 -158.3017786773514, 9.887412103875599 -166.3938774476161, 9.35138257140071 -168.36340234985673 C8.815353038925823 -170.33292725209736, -14.375140327365692 -167.30286399875072, -16.78550156020815 -167.71051676979386 C-19.19586279305061 -168.118169540837, -5.367578375186997 -170.07068323388094, -5.110784825654034 -170.80931897611546 C-4.853991276121071 -171.54795471834998, -16.027588114665036 -170.85367560695735, -15.24474026301037 -172.14233122320104 C-14.461892411355702 -173.43098683944473, -0.3523485031265423 -177.60956917629412, -0.413697715726034 -178.5412526735776 C-0.47504692832552564 -179.47293617086106, -14.543266597566033 -177.2104151073146, -15.61283553860732 -177.73243220690188 C-16.682404479648604 -178.25444930648916, -7.68322185842909 -180.7790880086283, -6.83111136197375 -181.67335527110126 C-5.979000865518409 -182.56762253357422, -12.297461474720404 -181.79442398174768, -10.500172559875276 -183.09803578173967 C-8.702883645030148 -184.40164758173165, 3.8288456280957743 -188.27256617591433, 3.9526221270970154 -189.4950260710532 C4.076398626098256 -190.71748596619204, -7.64634499154848 -189.9659677770856, -9.75751356586783 -190.43279515257277 C-11.86868214018718 -190.89962252805992, -7.822069952035041 -192.4566063827297, -8.714389318819086 -192.29599032397604 C-9.606708685603131 -192.1353742652224, -15.512933466086237 -188.63038673162453, -15.1114297665721 -189.46909880005086 C-14.709926067057962 -190.3078108684772, -6.935721673801311 -196.18435709799553, -6.30536712173426 -197.3282627345341 C-5.67501256966721 -198.47216837107266, -9.835687644607148 -196.57472326074188, -11.329302454169797 -196.33253261928223 C-12.822917263732446 -196.0903419778226, -15.893559004155787 -195.26493580769613, -15.26705597911016 -195.87511888577623 C-14.640552954064532 -196.48530196385633, -7.010300004560378 -199.5430327968354, -7.57028430389603 -199.99363108776282 C-8.130268603231682 -200.44422937869024, -19.926070629418074 -196.72853459285272, -18.626961775124073 -198.57870863134067 C-17.327852920830072 -200.42888266982862, -0.2664144367769065 -209.45291198591931, 0.2243688218679707 -211.09467531869055 C0.715152080512848 -212.73643865146178, -14.213765609023936 -208.1617002871993, -15.68226222325481 -208.42928862796805 C-17.150758837485686 -208.6968769687368, -8.453946532720039 -211.9651640863524, -8.586610863517278 -212.70020536330304 C-8.719275194314516 -213.4352466402537, -16.654769586776226 -211.14172238198276, -16.478248208038238 -212.83953628967203 C-16.30172682930025 -214.5373501973613, -7.465629056343886 -221.85804874492274, -7.527482591089351 -222.88708880943864 C-7.589336125834816 -223.91612887395453, -15.885798852175121 -219.016294254695, -16.849369416511028 -219.01377667676735 C-17.812939980846934 -219.0112590988397, -12.990747644740427 -222.49055878481164, -13.308905977104793 -222.8719833418727 C-13.627064309469159 -223.25340789893374, -17.73572414967297 -221.84457436635577, -18.758319410697226 -221.3023240191337 C-19.780914671721483 -220.7600736719116, -19.677074846640828 -219.86008976005905, -19.444477543250326 -219.61848125854016 M-2.7272096174324805 -28.386740304057646 C-0.1798291263871632 -28.317181729202318, 12.595947099855223 -27.927119612358275, 11.703994912551524 -28.257621488099147 C10.812042725247824 -28.58812336384002, -10.850705381838809 -29.15660538902845, -8.078922741254672 -30.36975155850287 C-5.307140100670535 -31.58289772797729, 24.186198175571782 -35.27954302131667, 28.334690756056347 -35.53649850494566 C32.48318333654091 -35.793453988574655, 17.716067949218374 -32.25169447857601, 16.812032741652725 -31.911484460276814 C15.907997534087075 -31.571274441977618, 25.016620249056302 -32.831409347557745, 22.910479510662448 -33.49523839515048 C20.804338772268594 -34.159067442743215, 5.057992451535996 -36.069616553799094, 4.175188311289594 -35.89445874583321 C3.292384171043192 -35.71930093786733, 17.509824444884075 -33.965300729068886, 17.613654669184037 -32.44429154735518 C17.717484893484 -30.92328236564147, 3.7399523212099792 -26.903529228366594, 4.798169657089361 -26.768403655550962 C5.856386992968743 -26.63327808273533, 23.73207872212668 -30.211425816710733, 23.96295868446033 -31.633538110461377 C24.193838646793978 -33.05565040421202, 6.400242534384839 -33.87666805198283, 6.1834494310912635 -35.30107741805482 C5.966656327797688 -36.7254867841268, 23.566409499758187 -39.57442094070008, 22.662200064698876 -40.17999430689326 C21.757990629639565 -40.78556767308645, 0.8696262008391635 -37.904859377070935, 0.7581928207353965 -38.934517615213906 C0.6467594406316295 -39.96417585335688, 20.389216689594093 -45.762461278698396, 21.993599784076274 -46.3579437357511 C23.597982878558454 -46.9534261928038, 13.137399669711835 -43.35577391806079, 10.38449138762848 -42.50741235753015 C7.631583105545124 -41.65905079699951, 3.3122456674678546 -40.04473998968614, 5.476150091576143 -41.26777437256723 C7.640054515684431 -42.49080875544832, 23.523733205182918 -47.98113241152646, 23.367917932278207 -49.84561865481668 C23.212102659373496 -51.710104898106906, 4.9545497387234665 -50.635681988472946, 4.5412584541478775 -52.45469183230857 C4.127967169572289 -54.27370167614419, 19.96276443807088 -59.431697537747866, 20.888170224824673 -60.75967771783042 C21.813576011578466 -62.087657897912976, 13.230694094995323 -60.779212716779966, 10.093693174670637 -60.42257291280392 C6.956692254345951 -60.06593310882788, 0.5457463645849236 -58.026019797075584, 2.066164702876555 -58.61983889397413 C3.5865830411681863 -59.21365799087268, 18.237611220047565 -63.91830008026103, 19.216203204420424 -63.98548749419522 C20.194795188793282 -64.05267490812942, 8.241115503658904 -58.86358045622913, 7.9377166091137035 -59.0229633775793 C7.634317714568504 -59.182346298929474, 18.82344885233337 -64.30596406199322, 17.395809837149226 -64.94178502229624 C15.968170821965083 -65.57760598259927, 0.09009128080764373 -61.355091496243396, -0.6281174819911547 -62.83788913939745 C-1.346326244789953 -64.32068678255149, 12.97729080514794 -72.13265643390602, 13.086557260356436 -73.83857088122055 C13.195823715564932 -75.54448532853507, -0.3741343074333583 -71.89820121157766, 0.02748124925982176 -73.07337582328458 C0.4290968059530018 -74.2485504349915, 15.480132343458322 -79.60352547174013, 15.496250600515516 -80.88961855146206 C15.51236885757271 -82.175711631184, 0.16061063377837903 -80.02510376468479, 0.12419079160298963 -80.78993430161617 C0.08777094942760022 -81.55476483854756, 15.180191023845193 -85.04089427727197, 15.27773154746318 -85.47860177305039 C15.375272071081167 -85.9163092688288, 0.9605067113787755 -82.5723369037778, 0.7094339333109064 -83.41617927628664 C0.4583611552430373 -84.26002164879549, 15.24281865971474 -89.8162875716944, 13.771294879055965 -90.54165600810349 C12.29977109839719 -91.26702444451257, -7.317050725045374 -87.47711737469484, -8.119708750641735 -87.76838989474116 C-8.922366776238094 -88.05966241478748, 7.73195195843551 -91.25514680147157, 8.955346725477803 -92.28929112838145 C10.178741492520096 -93.32343545529133, 2.176367768694682 -94.20191850544943, -0.7793401483879773 -93.97325585620042 C-3.735048065470637 -93.74459320695142, -12.725948447143193 -88.27533445973205, -8.778900777018155 -90.91731523288743 C-4.831853106893117 -93.55929600604281, 20.015619703470296 -107.10525828382322, 22.902945872362245 -109.82514049513267 C25.790272041254195 -112.54502270644213, 9.167475143729662 -106.72194431933103, 8.545056236333537 -107.23660850074415 C7.92263732893741 -107.75127268215728, 19.424302714781714 -111.9338109143737, 19.168432427985486 -112.91312558361143 C18.91256214118926 -113.89244025284917, 12.077840680657545 -114.0417361849748, 7.009834515556168 -113.11249651617057 C1.9418283504547906 -112.18325684736634, -10.600006341783127 -107.76603420654848, -11.239604562622782 -107.33768757078609 C-11.879202783462437 -106.90934093502369, 2.358978290700167 -110.13279132865816, 3.17224519051824 -110.54241670159624 C3.985512090336313 -110.95204207453432, -7.4943690851152285 -108.51065018099189, -6.360003163714343 -109.79543980841459 C-5.225637242313458 -111.08022943583728, 9.891259153977376 -117.21868374483608, 9.97844071892355 -118.25115446613242 C10.065622283869722 -119.28362518742875, -1.8473212785879807 -116.68106647016569, -5.83691377403731 -115.9902641361926 C-9.82650626948664 -115.2994618022195, -16.836683844482057 -112.18445295068827, -13.959114253772425 -114.10634046229387 C-11.081544663062793 -116.02822797389948, 8.352471967554266 -125.55736146666126, 11.428503770220484 -127.52158920582619 C14.504535572886702 -129.48581694499111, 8.33111528206538 -126.75374761169805, 4.4970765622248825 -125.89170689728347 C0.663037842384385 -125.0296661828689, -9.474909437843452 -122.71243598203517, -11.575728548822502 -122.34934491933875 C-13.676547659801551 -121.98625385664232, -12.098412321267464 -122.12018609585019, -8.107838103649417 -123.71316052110487 C-4.11726388603137 -125.30613494635955, 10.67141035009898 -130.74269209665584, 12.36771675688578 -131.90719147086688 C14.06402316367258 -133.0716908450779, 2.171465534616086 -130.0014153633272, 2.0700003370713804 -130.70015676637112 C1.968535139526675 -131.39889816941505, 14.546387491219551 -135.3652303083644, 11.758925571617548 -136.09963988913046 C8.971463652015544 -136.8340494698965, -14.75088784686911 -132.5520384861938, -14.654771180540642 -135.10661425096737 C-14.558654514212174 -137.66119001574094, 10.712177966574076 -149.4342757763049, 12.335625569588357 -151.42709447777185 C13.959073172602638 -153.4199131792388, -3.6045058334541857 -146.85252157859162, -4.914085562454954 -147.06352645976898 C-6.223665291455722 -147.27453134094634, 5.552707471347904 -152.2050666838581, 4.478147195583749 -152.69312376483603 C3.4035869198195945 -153.18118084581397, -12.040354653988361 -148.61786025335104, -11.361447217039881 -149.99186894563667 C-10.682539780091401 -151.3658776379223, 6.1512046464688925 -159.4526134337617, 8.55159181727463 -160.93717591854983 C10.951978988080368 -162.42173840333794, 6.7685626767589575 -160.56899200228344, 3.0408758077945457 -158.89924385436544 C-0.6868110611698661 -157.22949570644744, -12.413391631618202 -151.90777844540463, -13.814529396511842 -150.9186870310418 C-15.215667161405483 -149.92959561667897, -6.481064075402873 -152.7262102140132, -5.365950781567299 -152.96469536818836 C-4.250837487731724 -153.2031805223635, -5.405433175410287 -152.41733349097697, -7.123849633498393 -152.34959795609268 C-8.842266091586499 -152.2818624212084, -14.835450767988211 -152.23487182943057, -15.676449530095935 -152.55828215888263 C-16.517448292203657 -152.8816924883347, -16.426587880226617 -151.71574495025448, -12.16984220614473 -154.29005993280495 C-7.913096532062845 -156.86437491535543, 10.595700683058297 -165.90587171953706, 9.86402451439538 -168.00417205418557 C9.132348345732463 -170.1024723888341, -14.110640225663404 -166.37845472761666, -16.559899218122236 -166.87986194069595 C-19.00915821058107 -167.38126915377524, -4.87765146280289 -170.4186955406177, -4.831529440357615 -171.01261533266123 C-4.78540741791234 -171.60653512470475, -17.069646605878283 -169.05910496161198, -16.283167083450586 -170.443380692957 C-15.49668756102289 -171.827656424302, -0.5627270365327248 -178.40175522615965, -0.11265230579143859 -179.31826972073137 C0.3374224249498477 -180.23478421530308, -12.71607965795214 -175.20965300505526, -13.582718699002868 -175.9424676603872 C-14.449357740053596 -176.67528231571913, -5.745783698648514 -182.49167724040436, -5.312486552095803 -183.71515765272292 C-4.879189405543092 -184.9386380650415, -12.322268537567943 -182.39615469534056, -10.982935819686602 -183.28335013429862 C-9.643603101805262 -184.17054557325667, 2.635569788008912 -188.0506430088514, 2.72350975519224 -189.03833028647136 C2.8114497223755675 -190.02601756409132, -8.85314769717728 -188.6393711847655, -10.455296016586637 -189.2094738000183 C-12.057444335995994 -189.77957641527107, -6.047962067074792 -192.09489146654698, -6.889380161263908 -192.45894597798807 C-7.730798255453024 -192.82300048942915, -15.762214411847367 -190.48091956709501, -15.503804581721333 -191.3938008686647 C-15.245394751595299 -192.30668217023438, -5.95622267091065 -196.9079885628811, -5.338921180507704 -197.9362337874061 C-4.721619690104758 -198.96447901193113, -10.190129134882932 -197.8299003631754, -11.799995639303656 -197.5632722158149 C-13.40986214372438 -197.29664406845438, -15.617470572482661 -196.07025051430662, -14.998120207032047 -196.33646490324307 C-14.378769841581432 -196.60267929217952, -7.476502800764393 -198.55820836087307, -8.083893446599966 -199.16055854943355 C-8.691284092435538 -199.76290873799402, -19.735722290141688 -197.7438493823137, -18.642464082045482 -199.950566034606 C-17.549205873949276 -202.1572826868983, -2.166616507353977 -211.10706081167092, -1.5243441980227401 -212.4008584631873 C-0.8820718886915034 -213.69465611470366, -13.751733465354732 -207.89809323110495, -14.788830226058062 -207.71335194370417 C-15.825926986761392 -207.52861065630339, -7.857741803146239 -210.11666282939657, -7.746924762242713 -211.29241073878256 C-7.6361077213391875 -212.46815864816855, -14.100595073955908 -212.4838140323961, -14.123927980636909 -214.76783940002008 C-14.147260887317909 -217.05186476764405, -7.531686159126539 -224.02045716630693, -7.88692220232871 -224.99656294452643 C-8.24215824553088 -225.97266872274594, -15.452707487476633 -220.81302889414778, -16.255344239849936 -220.6244740693372 C-17.05798099222324 -220.43591924452662, -12.118528669418104 -224.14840100105187, -12.702742716568524 -223.865233995663 C-13.286956763718944 -223.58206699027414, -18.75734428240052 -219.49000125784846, -19.760628522752455 -218.92547203700397 C-20.76391276310439 -218.36094281615948, -18.94855408978336 -220.24463549314027, -18.72244815868013 -220.47805867059597" stroke="#7097d9" stroke-width="4" fill="none"></path></g></g><g><g transform="translate(195.0464700837016 126.23866762748548) rotate(345.5109022366416 -7.9361012672436 0.9514853946357391)"><path d="M-1.9085231362285124 -1.5186396505483382 C-2.7501168407998957 -1.6629542734273666, -8.017641350747207 0.06948544801376316, -7.642529171258742 -0.371564140523314 C-7.2674169917702764 -0.8126137290603912, 2.2397307052193787 -5.48061227717413, 0.3421499407022788 -4.164937181770801 C-1.555430823814821 -2.8492620863674727, -18.69004919621296 6.728800219977012, -19.02801375836134 7.522486431896658 C-19.36597832050972 8.316172643816303, -4.4365147725991 2.0592389475100195, -1.6856374321879852 0.5971800897470717 M-3.1259615762813047 0.6104205611082768 C-3.5737173946980363 0.5947085094186519, -6.386878357975864 -1.2400904865174043, -5.397052294789413 -2.3772600895431784 C-4.407226231602961 -3.514429692568952, 5.059794951249902 -8.029392137732117, 2.812994802837406 -6.212597057046368 C0.5661946544249097 -4.395801976360619, -17.942698190865514 7.829179346523916, -18.877853185264392 8.52351039457132 C-19.81300817966327 9.217841442618724, -5.74569722697465 -0.7970162146713133, -2.7979351635558563 -2.0466107687619473" stroke="#7097d9" stroke-width="4" fill="none"></path></g></g><g transform="translate(106.03577797879996 183.56761007418544) rotate(0 17.52951742484686 7.158110854760707)"><path d="M4.842535025246888 1.4236686155200005 L34.95355593773438 0.7299327551615703 L35.63283484733215 1.699438124262513 L36.33423918044677 13.477786253997262 L31.440906796974346 16.241523969145415 L2.2785929882161033 15.975863944036316 L-1.3994733244883548 12.539623211928781 L1.892723686993122 3.244150272377282 L2.6880267036129903 -0.5143598097394035 L3.7705457273800667 -0.5717287138104439" stroke="none" stroke-width="0" fill="#7097d9"></path><path d="M1.6623110834439094 0.8337738439440727 M2.265071264274865 0.6704627349972725 C10.596595299987268 -0.7725380665662402, 17.54407850318014 0.9230984442827588, 33.293300051612064 -1.1999031230807304 M3.4864659931440647 0.6154199801385403 C12.156672049879894 -0.5105021497286546, 19.330238854906742 0.10200102123844751, 32.09221789277832 -0.6367921866476536 M31.479979422313377 0 C35.284493082133636 -0.7108168676495552, 35.21801653801437 -0.6019045987500253, 33.86775151192184 3.141057840355187 M32.748248134178326 0.5989904329180717 C35.83182617474864 -1.7951032485812901, 33.83012258223231 1.9689558456318075, 37.20630034617122 2.4318358920444547 M35.70960373014044 3.125541464185193 C34.437866890792996 6.996099259184155, 35.398624036375885 9.096573961539676, 34.736089550580196 10.77845227065925 M34.89510813772388 3.248480783296684 C34.69646459455096 5.6910667056857696, 35.0533891256427 8.183413764382278, 35.222764619618346 10.866695571945927 M35.05903484969373 10.737166282141057 C33.249785098423914 14.828459688374547, 32.300338619319305 13.485330331297515, 30.91288307718675 16.00854610201895 M35.10131660400863 11.719728816652147 C33.36862023285563 14.519233841920046, 31.659504414094194 12.177409910010098, 32.947498314825104 12.920682143019436 M30.180820126456425 14.59785139855921 C21.88008310820335 15.16848037086148, 17.00096931993075 12.760875914913605, 3.9185839805682 15.699012640090583 M32.366023391855165 14.544675461174844 C21.82280764145549 14.86618038785859, 12.091058108096828 13.40798958909913, 4.558522882678061 14.189756385208963 M3.5790554273803528 14.316221709521411 C2.2888852825985846 12.902853000136016, -0.7209707424044609 11.144496627995519, -1.2153397724032402 9.071012605333177 M5.432490116723328 13.462110984297393 C0.5227817239837347 13.11797510270953, -0.16195741631090632 15.276760489964632, -0.89563988186419 12.704428815820663 M-0.4105238306663343 10.855426507051963 C0.6820749659263279 8.497447959270046, 0.33256884208790805 7.330145940459822, -0.2258583826840614 2.9718966856066267 M0.12622558332949696 10.788339607976772 C-0.07000063470160159 8.530959280894887, 0.3497113723554005 6.691206871108493, -0.023236125408797492 3.624016760319745 M0 3.5790554273803528 C-1.22750174254179 0.4564042410479483, 0.08729307564362854 1.5292093679308891, 3.5192136827786262 -0.6208536699414253 M0.4653993919491768 4.873104206093102 C-0.851683947816491 -0.24282657404974106, -0.28338250493243367 0.4482593808323143, 4.761942256980091 -0.6698483910411597" stroke="#7097d9" stroke-width="4" fill="none"></path></g><g transform="translate(109.69543769845643 139.45289538558444) rotate(0 13.233830047649917 5.191023981625847)"><path d="M-1.8297300413250923 1.10117519646883 L25.295568842198023 1.9831215217709541 L25.726637501026758 8.480399806906798 L1.5418450757861137 8.785701234747984" stroke="none" stroke-width="0" fill="#7097d9"></path><path d="M-1.4371255561709404 0.5122780725359917 C9.186572100127727 -0.17792143546920286, 18.542333049883425 -1.591014763945155, 27.558468851949343 -1.5705077722668648 M-0.5705586709082127 0.562396589666605 C4.764886068144262 -1.0037458752188753, 10.916122890936972 -1.2299022291693757, 25.952208898718723 0.6552898325026035 M25.79349167902434 0.7839235736199837 C26.70308740434875 2.9477583239630687, 27.01016174342029 4.83594269882921, 27.081609579705926 9.7434938308246 M26.9227971022878 0.46676927843152083 C26.74407087235978 3.925119280579271, 26.846184861571817 7.441610478071762, 26.19910861556199 10.158656453179715 M26.732219967748293 8.951650922109701 C17.27407584277404 12.341716626151587, 6.636373917506816 9.334949591620948, 1.5132125690579414 10.665968959142782 M26.927663586790928 11.210585729142048 C17.35144926653333 10.121094829919201, 6.605431326890965 9.472903258683544, 0.20785235986113548 9.623310820122578 M0.1713583973110997 9.607427448404074 C0.2458893100357919 6.629708538449443, -0.5723469985452575 2.855969515016019, -0.010376526711844969 -0.4706090787391687 M-0.40666658384092713 10.555668294150207 C0.401865218824106 8.060061540591722, 0.3073078671673386 5.365706196959142, 0.5060935364460653 -0.35596453953321383" stroke="#7097d9" stroke-width="4" fill="none"></path></g><g transform="translate(116.21080276364262 100.88254142081394) rotate(0 9.495634559497205 3.4949482631669753)"><path d="M3.6552138975255857 0.5062417909502983 L19.351891547948206 0.12308797925693721 L20.05329588106283 7.727811215815384 L0.397795907556841 8.478330253062088 L0.2653743103146553 3.630807330309666 L0.12430984288386204 0.23662018030881882" stroke="none" stroke-width="0" fill="#7097d9"></path><path d="M3.640197818576611 -0.33490515500307083 M1.3044895519986808 -1.4851242676115768 C8.431840561296903 -0.7143246090883146, 15.339755334599197 0.949701309190013, 16.225698977862976 0.5194852831696659 M2.17236864687517 0.7024949571525834 C5.859213276584281 -0.18297874258584512, 10.391860723146806 0.052504019400821056, 17.17205520837165 0.4768372736656876 M17.2437949874109 0 C19.352123176763595 0.22749113291502, 20.215746059924278 -0.6910929961008108, 20.866991653948936 0.7499589225643049 M16.05251164963901 -0.43799758702516556 C18.591606683368624 -2.064161535724997, 20.44977813763908 1.271330375050279, 20.62251733346275 0.9300347337865005 M18.718495511132016 1.5607356622465811 C19.091743626420197 3.43721247213112, 19.055537495146663 4.57995199579808, 19.308909432887475 5.020994161777971 M18.97478140258995 1.6686350960379495 C19.03184004088476 2.508400563370847, 18.88836354395607 3.080924691237868, 18.911231887256818 5.0810192952973665 M18.99126911899439 5.2424223947504665 C19.26506985715023 7.04283666978031, 19.323710596273482 7.713714821037916, 15.523077683956025 6.244941456017164 M18.42417277386776 6.934746787248006 C17.190739701226267 5.45188006418198, 18.457401759262027 8.119843441021708, 15.16315777345061 8.950941449177531 M18.18437491041527 5.503252295839363 C10.165122316931933 6.751781628361865, 6.691098156844523 7.726706474402981, 0.7408646670119814 7.208107727526788 M16.581903110208025 7.1214326113318 C14.256628041344491 7.402042032552306, 9.589741160175532 7.312245348351854, 2.4339952138030148 7.166906158150911 M1.747474131583489 6.989896526333956 C-0.8024798763793981 5.042515260872511, 1.958934910595417 6.154474500514563, -0.6179078742861748 6.2114227268079425 M0.5321343591802488 5.3237428495260755 C-0.24662497657063365 4.714383929741649, 2.1314498927444214 5.425177815131839, 1.2602468278259038 3.6170483789572625 M-0.18207869118795253 5.217812273409475 C0.2973488310777087 4.172353674864879, -0.12927122139667843 3.516558396373614, -0.20043829693161738 1.805214696942185 M0.0590649386879053 5.187284707007172 C-0.12794878097166473 3.873161854138864, 0.004542633166077857 2.5888170686426744, 0.06162965231689077 1.7724595124861973 M0 1.747474131583489 C1.9182013347744942 2.0791222768026314, 0.4526463614898646 0.2512469217181206, 1.3202968290441404 -0.2755708768963814 M-0.05984174460172653 1.1266204616420636 C-1.2715842101722954 2.3410821503150183, 1.1177006779360499 1.488156095519662, 0.33584712766043046 -0.8471063699573278" stroke="#7097d9" stroke-width="4" fill="none"></path></g><g transform="translate(122.14793719939678 68.29566051127159) rotate(0 5.324688265325904 0.8350993119397856)"><path d="M1.2150406178195832 -0.3137805536389351 L11.730722169646262 1.1747832223773003 L10.610303905312811 3.1779512275336854 L0.682923966284549 3.553531822605752 L-1.2056146327297332 0.23662018030881882" stroke="none" stroke-width="0" fill="#7097d9"></path><path d="M2.310273342963016 -0.33490515500307083 M0.13699445140822458 -0.9405730174395308 C4.650956138902273 -0.4524028511647976, 9.025942383648895 0.60147386015562, 9.587036632796217 0.3290053573039553 M0.6866478890653125 0.44491078355866764 C3.021635373831935 -0.11588583648831213, 5.892294738020528 0.033252344623628416, 10.186391955926016 0.30199511455069494 M10.231826874681948 0 C11.453538746958914 0.22749113291502, 11.873853471581732 -1.1344011546386759, 12.52509906560639 -0.5799655530492904 M9.040543536910056 -0.43799758702516556 C10.693022253563942 -2.064161535724997, 12.107885549296533 0.8280222165124138, 12.280624745120203 -0.39988974182709475 M10.584198726836577 0.37292949123113744 C10.673384380182283 0.8213036515357466, 10.66473311754896 1.0943551870900758, 10.725274995407966 1.1997398685252425 M10.645436878448715 0.3987114874533686 C10.65907073680433 0.5993689825445889, 10.624787790436446 0.7361705799500478, 10.630252059523608 1.2140825551479386 M10.649376530651843 1.2526489679096813 C10.923177268807684 2.1664469258637937, 11.425126166468802 2.394016918583535, 8.511109571227072 0.9252435535627834 M10.082280185525214 2.9449733604072206 C8.848847112883721 0.5754903202654633, 10.558817329457344 2.8001455385673273, 8.15118966072166 3.63124354672315 M10.827523891838657 0.7286629690995514 C5.748694615422081 1.5193934333865917, 3.5484926133591426 2.1368421036533514, -0.2199658180704504 1.808398215941407 M9.812631219653941 1.753504307495919 C8.339965911036208 1.931222533367885, 5.3842887521615115 1.8743516438023162, 0.8523437132224521 1.7823040463986544 M0.41754965596989374 1.670198623879575 C-1.2457880349172632 -0.2771826415818699, 1.958934910595417 1.2780847565980467, -0.6179078742861748 2.221649299967157 M-0.7977901164333465 0.00404494707169456 C-0.6899331351084987 -0.6053139727127321, 2.1314498927444214 0.548788071215323, 1.2602468278259038 -0.3727250478835229 M-0.043506735516642914 1.2467685102172994 C0.0710499227860046 0.9969617346757942, -0.030888671280117436 0.840262938412311, -0.04789366572834424 0.43134645717300146 M0.014113253171118223 1.2394741104785583 C-0.030572681169291134 0.9254714393087609, 0.001085438051076872 0.6185840790680068, 0.014726077861389186 0.42351977994005463 M0 0.41754965596989374 C1.9182013347744942 1.6358141182647665, 0.009338202951999441 0.2512469217181206, -0.009627646569454862 -0.2755708768963814 M-0.05984174460172653 -0.20330401397153158 C-1.2715842101722954 1.8977739917771534, 0.6743925193981848 1.488156095519662, -0.9940773479531648 -0.8471063699573278" stroke="#7097d9" stroke-width="4" fill="none"></path></g></svg>